Patient4_TMGait_0pt8_01_left_17_EMG.mot
version=1
nRows=41
nColumns=33
inDegrees=no
endheader
time	1LAddLong	2LGlutMax	3LGlutMed	4LIliopsoas	5LSemiMemb	6LBicFemLong	7LRecFem	8LVastMed	9LVastLat	10LGasMed	11LTibAnt	12lTibPost	13LPeroneusLong	14LSol	15LExtDigLong	16LFlexDigLong	17RAddLong	18RGlutMax	19RGlutMed	20RIliopsoas	21RSemiMemb	22RBicFemLong	23RRecFem	24RVastMed	25RVastLat	26RGasMed	27RTibAnt	28RTibPost	29RPeroneusLong	30RSol	31RExtDigLong	32RFlexDigLong
19.06	-0.016327	0.073395	0.20096	-0.003052	0.013123	-0.062103	-0.33295	0.004272	0.007629	-0.098267	-0.011292	0.04776	0.067291	0.76965	-0.026398	0.2121	-0.035553	-0.016022	0.7402	-0.005493	0.016174	0.11063	-0.050354	0.083313	-0.20905	0.004883	-0.93658	0.001831	0.066071	0.031891	0.007172	-0.006256
19.061	-0.005951	0.1149	0.23285	-0.015564	0.034637	-0.079651	-0.31647	0.003052	-0.013123	-0.38452	-0.006104	-0.010376	0.014038	0.59326	-0.063934	-0.26962	-0.074615	-0.027924	0.57983	0.098877	0.057831	0.18814	-0.39352	0.20599	-0.12802	-0.003662	-0.36926	0.00351	-0.052338	-0.020447	-0.003967	0.001984
19.062	0.002594	0.15106	0.27618	0.01297	0.048981	-0.084991	-0.31647	0.001221	0	-1.0738	-0.003967	-0.14496	-0.007477	-0.19409	-0.061493	0.08728	-0.10666	-0.033875	0.6691	-0.05722	0.009155	0.19943	-0.66956	0.74707	0.050049	-0.000916	-0.009613	-0.001984	0.29129	-0.098267	-0.001831	0.002136
19.063	0.011749	0.20233	0.29724	0.009308	0.034485	0.015411	-0.29175	0.003662	0.003662	-0.56778	-0.011139	-0.053711	-0.019531	-0.3244	0.011597	-0.31342	-0.13123	-0.044708	1.0724	-0.34576	0.289	0.23148	-0.63904	0.81268	0.11002	0.001373	0.13321	-0.000153	0.72174	-0.10788	-0.001373	-0.001831
19.064	0.012207	0.1947	0.23758	0.003052	0.009918	0.13062	-0.27893	0.001678	-0.004883	-0.47195	-0.00473	-0.020752	-0.003204	-0.27618	0.013275	0.29999	-0.084229	0.002136	1.1911	-0.35873	0.59921	0.096741	-0.47211	0.57663	0.34317	0.000305	0.066223	-0.008545	-0.07431	-0.018768	0.005798	0.001373
19.065	0.017853	0.17838	0.23789	0.00473	-0.024109	0.15778	-0.26398	-0.003052	0.006104	-0.37872	-0.000305	-0.052948	-0.011749	-0.16373	0.004272	0.010834	-0.020905	0.082092	0.7988	-0.096436	0.45258	0.19989	-0.36926	0.354	0.6189	-0.007629	-0.15396	-0.004425	-0.13184	0.14893	-0.003052	-0.005188
19.066	0.016937	0.1297	0.22858	0.012817	-0.041656	0.15152	-0.26993	-0.000916	0.002899	-0.224	0.010986	-0.0354	0.040894	-0.12604	-0.044556	-0.014801	0.002441	0.1503	0.60089	0.2446	0.36484	0.11688	-0.50323	0.10208	0.73639	-0.001373	-0.22675	-0.010376	0.10208	0.13916	-0.006714	-0.009155
19.067	0.0177	0.14862	0.34729	-0.005493	-0.021057	0.11871	-0.25391	-0.003662	0.009308	0.014954	-0.001678	0.006714	0.079651	-0.053101	-0.043182	0.18127	0.052032	0.24063	0.55115	0.36896	0.24765	0.051575	-0.45288	-0.27344	0.63156	-0.005188	-0.1207	-0.004578	0.16998	0.018311	-0.004272	-0.011139
19.068	0.0177	0.2066	0.26062	-0.010376	-0.024719	0.055084	-0.24918	0.001068	0.005798	0.054779	-0.005188	0.023499	0.12878	-0.0914	-0.004425	-0.77835	0.10132	0.17593	0.54199	0.31021	0.1738	-0.13931	-0.29251	-0.52963	0.3186	0.001831	0.19882	-0.00351	0.28214	-0.074768	-0.001373	-0.000305
19.069	0.023041	0.20462	0.26932	0.011139	-0.001221	0.043945	-0.24185	0.001678	-0.007477	0.12528	0.010071	0.016479	0.12009	-0.72342	-0.022125	-0.012817	0.14893	0.16159	0.49911	0.19867	-0.016479	-0.22201	-0.22812	-0.90363	0.029602	0.005951	0.34698	-0.000916	-0.28519	-0.10757	0.000305	-0.001221
19.07	0.024719	0.18967	0.3122	0.014801	0.069733	0.02243	-0.24292	0.001068	0.006256	0.12177	0.035095	0.003815	0.070038	-0.95642	-0.012512	0.14404	0.15289	0.15732	0.40649	0.09613	-0.18723	-0.16739	-0.32303	-1.0574	-0.061493	-0.006714	0.23575	-0.004272	-0.1178	-0.06012	-0.001984	-0.002289
19.071	0.014038	0.18082	0.35324	0.022583	0.04425	0.065155	-0.21225	-0.000458	0.007629	0.034943	0.037384	-0.018311	0.022888	-0.34637	0.012512	-0.47592	0.13336	0.11063	0.28351	0.067139	-0.24948	-0.039673	-0.32547	-0.85022	-0.022736	-0.007935	0.23514	-0.004425	-0.006866	-0.04303	0.000916	-0.002594
19.072	0.017548	0.19363	0.36697	0.016174	0.029907	0.064545	-0.20813	0.005493	0.005951	-0.067139	0.008392	-0.02182	0.014801	0.16495	0.028839	0.26474	0.013275	0.07019	0.21591	0.038147	0.10193	0.085907	-0.43747	-0.55145	-0.23911	-0.012817	0.32013	-0.005341	-0.21713	-0.044861	0.00061	-0.007782
19.073	0.018463	0.19424	0.30655	-0.007172	0.00946	0.001984	-0.18478	0.005341	0.004272	-0.046692	0.001221	0.28503	-0.054016	0.18524	0.041504	0.13565	0.049896	0.071869	0.11063	0.046234	0.6694	-0.041046	-0.51422	-0.28442	-0.29083	-0.000458	0.090332	-0.006256	-0.1355	-0.002899	0.000458	0.002441
19.074	0.012054	0.11292	0.29007	-0.008545	0.007172	-0.022278	-0.18143	-0.001068	0.014038	0.14923	0.008087	-0.19623	-0.11398	0.087128	0.037537	0.099335	0.085907	0.042877	0.12375	0.063782	1.0928	-0.36636	-0.53787	-0.11002	-0.33585	-0.008545	-0.1857	-0.001984	0.16693	-0.023804	-0.002289	-0.008087
19.075	0.018005	0.14343	0.28763	0.004425	0.024414	-0.031586	-0.16769	0.000153	0.022278	0.17425	0.017548	-0.086212	-0.13397	-0.037231	0.045319	0.10544	0.11948	0.04425	0.007935	0.11444	0.79895	-0.48218	-0.52872	0.085449	-0.3215	0.002594	-0.002136	-0.002136	0.52994	-0.10193	0.000916	0.001526
19.076	0.015411	0.14618	0.30426	0.006561	0.026245	-0.021057	-0.17319	-0.005035	0.029755	0.34225	0.005646	-0.050354	-0.051727	0.12253	0.054626	0.28839	0.10086	0.090332	-0.050659	0.044861	0.33844	-0.32852	-0.4866	0.19836	0.022278	0.009766	0.45487	0.001678	-0.30624	-0.12451	-0.001678	0.002747
19.077	0.02243	0.18478	0.39459	-0.009613	0.007629	-0.037537	-0.16602	0.00061	0.026245	0.42679	0.009155	0.057678	0.038757	0.5072	0.071106	-0.52536	-0.070953	0.12695	-0.081024	-0.017395	-0.17441	-0.04364	-0.4599	0.23468	0.12573	-0.013123	0.9166	-0.001526	-0.63309	-0.072021	-0.001221	-0.000305
19.078	0.025177	0.15579	0.36041	0.021515	-0.015106	-0.079193	-0.14694	0.002899	0.027924	0.31372	0.006714	0.016022	0.10925	0.75104	0.073242	0.062103	-0.14313	0.072479	-0.084381	-0.043335	-0.15427	0.13412	-0.39124	0.25085	0.12543	-0.007172	0.89157	-0.000916	-0.23453	-0.13428	-0.003052	0.001831
19.079	0.020599	0.20813	0.31937	0.014191	0.002136	-0.067596	-0.12558	-0.002136	0.028076	0.20905	0.002289	0.036926	0.14511	0.64911	0.038757	0.024719	-0.12634	0.14801	-0.22629	-0.057526	0.055237	0.19012	-0.36468	0.23758	0.058899	-0.007782	0.466	-0.006409	-0.34012	-0.20676	-0.003662	-0.001831
19.08	0.018311	0.22293	0.354	0.002899	0.021057	-0.03952	-0.10208	-0.002594	0.031281	0.68558	0.002594	0.14786	0.15595	-0.040283	-0.026703	-0.17227	-0.14358	0.1178	-0.27741	-0.05722	0.32349	0.42465	-0.39764	0.29739	-0.078583	-0.008392	-0.61859	-0.008698	-0.43182	-0.16327	-0.000916	-0.000153
19.081	0.022888	0.20477	0.31754	-0.008698	0.022888	0.050354	-0.090637	0.005188	0.02243	1.0561	0.006256	-0.17517	0.15671	-0.053253	0.034943	-0.025482	-0.16464	0.11108	-0.1445	-0.077972	0.392	0.59235	-0.40558	0.35843	-0.051117	0.001984	-0.83893	-0.005341	0.35858	-0.19623	-0.001678	-0.003662
19.082	0.019073	0.21286	0.31662	-0.00061	0.00351	0.083923	-0.08194	0.002747	0.026245	0.69305	0.002136	-0.1326	0.002441	0.77774	0.037231	-0.3508	-0.14038	0.10757	-0.26535	-0.053558	0.42831	0.37994	-0.34821	0.2182	-0.12299	0.015411	-0.27191	-0.004883	0.49027	-0.27191	-0.000763	-0.002441
19.083	0.017242	0.15854	0.27512	0.019684	-0.014801	0.001526	-0.065155	-0.002899	0.029449	-0.25986	-0.003967	0.039215	-0.053864	0.5751	0.050354	-0.3215	-0.10086	0.074921	-0.35309	-0.09903	0.44449	0.30395	-0.36713	0.09201	-0.21423	0.007629	-0.42786	-0.002594	-0.62958	-0.27298	-0.003967	-0.005951
19.084	0.018921	0.14984	0.27161	0.005493	-0.010681	-0.072784	-0.042419	-0.002441	0.042419	-0.42572	-0.00885	0.14114	0.01709	-0.19073	0.043945	0.50476	-0.051575	0.011902	-0.42877	-0.26047	0.33279	0.21057	-0.4274	0.1387	0.4187	0.004883	-0.85068	-0.002136	-0.59891	-0.16647	-0.001831	-0.003967
19.085	0.023346	0.14557	0.29144	0.00946	0.026245	-0.1091	-0.023956	-0.003967	0.043793	-0.70847	-0.006866	-0.009613	0.31036	-0.93979	0.036163	0.12497	-0.002594	0.019836	-0.66498	-0.29205	0.25314	0.11795	-0.5629	0.071716	0.57632	0.003204	-0.6012	-0.007629	-0.25146	-0.094299	0.00061	-0.010986
19.086	0.011139	0.11749	0.30487	-0.004578	-0.009308	-0.054321	-0.024109	0.001068	0.049744	-1.266	-0.015411	0.008698	0.33752	-0.74799	0.003052	-0.11643	0.040436	-0.044708	-0.68237	-0.25391	0.17929	0.087585	-0.35233	0.090942	0.23972	-0.018921	-0.3595	-0.001526	-0.045624	-0.009766	-0.004883	-0.010986
19.087	0.016785	0.13351	0.31403	-0.00061	-0.024414	-0.049744	-0.00824	-0.000305	0.057983	-0.7637	-0.02655	0.00061	0.36987	-0.4602	-0.006866	0.25757	0.10086	-0.10651	-0.59006	-0.093079	0.30258	-0.016937	-0.17609	0.050507	-0.10513	-0.019226	-0.34851	-0.002899	0.13123	0.050049	-0.00061	-0.006866
19.088	0.016937	0.12436	0.31357	0.010529	-0.025024	-0.029449	-0.040436	0.00351	0.077209	-0.45349	-0.017548	0.23361	0.27802	-0.51926	-0.081482	-1.2907	0.12909	-0.13062	-0.42129	0.21606	0.40451	-0.10132	-0.18982	0.076599	-0.33691	-0.016785	-0.039063	-0.008392	-0.12177	0.011139	-0.002441	-0.00824
19.089	0.011597	0.13473	0.31403	0.016632	-0.006409	-0.018768	0.003967	-0.006104	0.084991	-0.63995	-0.003357	-0.27313	0.16983	0.16953	-0.057526	0.8284	0.12405	-0.16937	-0.31784	0.29663	0.31097	-0.17624	-0.18646	-0.0354	-0.34271	-0.012512	0.098419	-0.008087	-0.13351	0.029907	-0.001678	-0.007629
19.09	0.015564	0.14862	0.33981	0.020905	0.017395	0.060577	0.015717	-0.002136	0.073853	-0.66177	0.005341	0.23682	0.006256	0.23254	-0.022278	0.17349	0.11978	-0.098572	-0.49072	0.23254	0.24155	-0.18021	-0.046539	-0.13153	-0.30487	0.001984	-0.15686	-0.002594	0.60379	0.077515	-0.002899	-0.001831
19.091	0.008545	0.10956	0.35523	0.002441	0.028992	0.007477	0.047913	-0.004272	0.073395	-0.30792	0.006866	-0.5693	-0.10651	0.053711	-0.022736	-0.70892	0.11505	-0.063171	-0.54062	0.19028	0.22003	-0.1828	-0.081787	-0.06134	-0.26413	0.007019	-0.4364	-0.002441	0.69748	0.14969	-0.005951	-0.002289
19.092	0.020599	0.11536	0.41443	-0.000305	0.032806	-0.037079	0.079803	-0.001068	0.076294	0.33585	0.016327	0.2713	-0.26337	-0.61096	-0.044403	0.27695	0.12268	-0.017548	-0.61752	0.168	0.41916	-0.17227	-0.13931	0.03418	-0.21835	0.00061	-0.58807	-0.007019	0.79422	0.11932	-0.000305	-0.012512
19.093	0.014496	0.058594	0.41946	0	-0.005646	-0.034485	0.085907	0.00351	0.074921	0.62363	0.014191	1.1263	-0.23117	-0.31586	-0.00061	0.80688	0.05188	-0.031128	-0.74341	0.15762	0.49393	-0.033569	-0.15778	0.043945	0.036011	-0.005646	-0.63721	-0.001373	0.73502	0.083771	-0.003357	-0.002136
19.094	0.004425	0.024261	0.37827	-0.006256	0.012512	0.005646	0.11612	0.001984	0.071106	0.40054	-0.002594	-0.64163	0.076294	-0.004883	0.015564	0.34759	-0.006561	-0.044403	-0.74829	-0.00473	0.28122	0.058136	-0.24948	-0.036469	0.19928	-0.010986	-0.23895	-0.002441	0.44601	0.041504	-0.002899	-0.002747
19.095	0.01358	0.059357	0.37674	0.000153	0.02182	0.06073	0.12314	0.005951	0.062866	-0.074615	-0.001373	-0.23636	0.17838	0.24521	0.013275	-0.04837	-0.006409	0.018616	-0.60303	-0.092773	0.17639	0.025177	-0.24506	-0.06424	0.19608	-0.014801	0.001526	-0.005188	0.17792	-0.018768	0.001678	-0.001984
19.096	0.011444	0.044861	0.3714	0.012512	0.005798	0.13214	0.14404	0.001373	0.063477	0.38437	-0.001526	0.11887	0.13931	1.524	-0.018005	-0.31143	0.016022	-0.10666	-0.77927	-0.052948	0.15366	-0.088654	-0.11398	-0.028229	0.14755	-0.011597	0.20798	-0.000153	0.003052	-0.062866	-0.002289	0.005646
19.097	0.012054	0.071564	0.42435	0.008392	-0.00946	0.159	0.12116	0.00412	0.064697	0.60242	-0.00946	-0.000458	0.029449	1.9061	-0.061646	0.26138	0.021057	-0.14633	-1.0318	0.072021	0.15686	-0.12726	-0.11307	0.14084	0.22919	-0.001831	0.05722	-0.002594	0.028534	-0.10132	-0.003052	0.00824
19.098	0.009766	0.056	0.37369	0.001526	-0.033722	0.18265	0.10986	-0.004883	0.070343	0.26611	0	0.38696	-0.007019	1.1736	-0.076599	0.13962	0.071411	-0.20157	-1.1851	0.22949	0.10956	-0.11704	-0.19287	0.30319	0.60501	-0.008392	0.14023	-0.001221	-0.112	-0.055237	-0.003815	0
19.099	0.015564	0.06897	0.3537	-0.007782	-0.026703	0.055695	0.10941	-0.045013	0.07431	-0.80368	0.005493	-0.36362	-0.075684	0.94376	-0.037079	0.30945	0.1088	-0.26703	-0.66711	0.11459	0.024719	-0.1413	-0.22827	0.12756	0.54108	-0.00824	0.30853	-0.003204	0.028381	-0.077362	-0.005798	0.008698
19.1	0.010529	0.025024	0.3685	-0.005951	-0.011139	-0.017395	0.11871	-0.008545	0.050507	-0.94727	0.001526	-0.081635	-0.056152	-0.43579	0.006866	-0.087738	0.082245	-0.35629	-0.42267	-0.024567	0.027618	-0.12466	-0.14572	0.067444	0.25345	-0.001831	0.61829	-0.002899	-0.70313	-0.077057	-0.011139	0.00885
